<?xml version="1.0" encoding="UTF-8"?>
<svg id="Layer_1" data-name="Layer 1" xmlns="http://www.w3.org/2000/svg" viewBox="0 0 659.72 66.22">
  <defs>
    <style>
      .cls-1 {
        fill: #fff;
      }
    </style>
  </defs>
  <path class="cls-1" d="M68.53,10.8c1.4,0,2.1.7,2.1,2.1v37.8c0,1.4-.7,2.1-2.1,2.1h-6.6c-1.4,0-2.1-.7-2.1-2.1v-12.78H20.95v12.78c0,1.4-.7,2.1-2.1,2.1h-6.6c-1.4,0-2.1-.7-2.1-2.1V12.9c0-1.4.7-2.1,2.1-2.1h6.6c1.4,0,2.1.7,2.1,2.1v14.82h38.88v-14.82c0-1.4.7-2.1,2.1-2.1h6.6Z"/>
  <path class="cls-1" d="M136.39,10.8c1.4,0,2.1.7,2.1,2.1v18.9c0,7.64-2.38,13.17-7.14,16.59s-12.02,5.13-21.78,5.13h-1.92c-9.76,0-17.02-1.71-21.78-5.13-4.76-3.42-7.14-8.95-7.14-16.59V12.9c0-1.4.7-2.1,2.1-2.1h6.6c1.4,0,2.1.7,2.1,2.1v18.9c0,4.2,1.34,7.15,4.02,8.85,2.68,1.7,7.38,2.55,14.1,2.55h1.92c4.8,0,8.51-.38,11.13-1.14,2.62-.76,4.44-1.93,5.46-3.51,1.02-1.58,1.53-3.83,1.53-6.75V12.9c0-1.4.7-2.1,2.1-2.1h6.6Z"/>
  <path class="cls-1" d="M215.77,10.8c1.4,0,2.1.7,2.1,2.1v37.8c0,1.4-.7,2.1-2.1,2.1h-6.6c-1.4,0-2.1-.7-2.1-2.1v-25.98l-21.96,21.6c-.64.6-1.6.9-2.88.9s-2.24-.3-2.88-.9l-21.96-21.6v25.98c0,1.4-.7,2.1-2.1,2.1h-6.6c-1.4,0-2.1-.7-2.1-2.1V12.9c0-1.4.7-2.1,2.1-2.1h6.6c1.56,0,2.68.34,3.36,1.02l23.58,23.16,23.64-23.16c.68-.68,1.78-1.02,3.3-1.02h6.6Z"/>
  <path class="cls-1" d="M289.69,50.28c.52.68.65,1.27.39,1.77-.26.5-.83.75-1.71.75h-8.58c-1.12,0-1.96-.44-2.52-1.32l-5.16-7.14h-30.48l-5.16,7.14c-.48.88-1.32,1.32-2.52,1.32h-8.58c-.88,0-1.45-.25-1.71-.75-.26-.5-.13-1.09.39-1.77l28.2-38.28c.64-.88,1.52-1.32,2.64-1.32h3.96c1.12,0,2,.44,2.64,1.32l28.2,38.28ZM247.99,35.46h17.76l-8.88-12.3-8.88,12.3Z"/>
  <path class="cls-1" d="M354.01,10.8c1.4,0,2.1.7,2.1,2.1v37.8c0,1.4-.7,2.1-2.1,2.1h-6.6c-1.36,0-2.46-.34-3.3-1.02l-37.44-28.44v27.36c0,1.4-.7,2.1-2.1,2.1h-6.6c-1.4,0-2.1-.7-2.1-2.1V12.9c0-1.4.7-2.1,2.1-2.1h6.6c1.24,0,2.34.34,3.3,1.02l37.44,28.38V12.9c0-1.4.7-2.1,2.1-2.1h6.6Z"/>
  <path class="cls-1" d="M451.09,10.8c1.4,0,2.1.7,2.1,2.1v37.8c0,1.4-.7,2.1-2.1,2.1h-6.6c-1.4,0-2.1-.7-2.1-2.1v-25.98l-21.96,21.6c-.64.6-1.6.9-2.88.9s-2.24-.3-2.88-.9l-21.96-21.6v25.98c0,1.4-.7,2.1-2.1,2.1h-6.6c-1.4,0-2.1-.7-2.1-2.1V12.9c0-1.4.7-2.1,2.1-2.1h6.6c1.56,0,2.68.34,3.36,1.02l23.58,23.16,23.64-23.16c.68-.68,1.78-1.02,3.3-1.02h6.6Z"/>
  <path class="cls-1" d="M518.95,50.22c.76.64,1.05,1.23.87,1.77-.18.54-.77.81-1.77.81h-8.82c-1.08,0-1.94-.3-2.58-.9l-14.34-12.54h-20.52v11.34c0,1.4-.7,2.1-2.1,2.1h-6.6c-1.4,0-2.1-.7-2.1-2.1V12.9c0-1.4.7-2.1,2.1-2.1h39c3.08,0,5.81.41,8.19,1.23,2.38.82,4.26,1.93,5.64,3.33,1.38,1.4,2.42,2.92,3.12,4.56.7,1.64,1.05,3.36,1.05,5.16,0,3.4-1.2,6.44-3.6,9.12-2.4,2.68-5.96,4.32-10.68,4.92l13.14,11.1ZM471.79,21.18v8.28h30.3c2.84,0,4.75-.31,5.73-.93.98-.62,1.47-1.77,1.47-3.45s-.47-2.65-1.41-3.15c-.94-.5-2.87-.75-5.79-.75h-30.3Z"/>
  <path class="cls-1" d="M584.05,50.34c.8.6,1.11,1.16.93,1.68-.18.52-.77.78-1.77.78h-9.9c-.76,0-1.62-.28-2.58-.84l-24.36-19.26-9.42,5.1v12.9c0,1.4-.7,2.1-2.1,2.1h-6.6c-1.4,0-2.1-.7-2.1-2.1V12.9c0-1.4.7-2.1,2.1-2.1h6.6c1.4,0,2.1.7,2.1,2.1v13.98l29.34-15.48c.76-.4,1.7-.6,2.82-.6h12.6c1.04,0,1.63.29,1.77.87.14.58-.25,1.11-1.17,1.59l-27,14.58,28.74,22.5Z"/>
  <path class="cls-1" d="M646.5,10.8c1.4,0,2.1.7,2.1,2.1v6.18c0,1.4-.7,2.1-2.1,2.1h-22.74v29.52c0,1.4-.7,2.1-2.1,2.1h-6.6c-1.4,0-2.1-.7-2.1-2.1v-29.52h-22.8c-1.4,0-2.1-.7-2.1-2.1v-6.18c0-1.4.7-2.1,2.1-2.1h56.34Z"/>
</svg>